%TF.GenerationSoftware,KiCad,Pcbnew,8.0.7-8.0.7-0~ubuntu24.04.1*%
%TF.CreationDate,2024-12-11T13:59:53+01:00*%
%TF.ProjectId,pcb,7063622e-6b69-4636-9164-5f7063625858,rev?*%
%TF.SameCoordinates,Original*%
%TF.FileFunction,Legend,Top*%
%TF.FilePolarity,Positive*%
%FSLAX46Y46*%
G04 Gerber Fmt 4.6, Leading zero omitted, Abs format (unit mm)*
G04 Created by KiCad (PCBNEW 8.0.7-8.0.7-0~ubuntu24.04.1) date 2024-12-11 13:59:53*
%MOMM*%
%LPD*%
G01*
G04 APERTURE LIST*
%ADD10C,0.150000*%
%ADD11C,0.120000*%
G04 APERTURE END LIST*
D10*
X135048666Y-119386819D02*
X135048666Y-120101104D01*
X135048666Y-120101104D02*
X135001047Y-120243961D01*
X135001047Y-120243961D02*
X134905809Y-120339200D01*
X134905809Y-120339200D02*
X134762952Y-120386819D01*
X134762952Y-120386819D02*
X134667714Y-120386819D01*
X135667714Y-119815390D02*
X135572476Y-119767771D01*
X135572476Y-119767771D02*
X135524857Y-119720152D01*
X135524857Y-119720152D02*
X135477238Y-119624914D01*
X135477238Y-119624914D02*
X135477238Y-119577295D01*
X135477238Y-119577295D02*
X135524857Y-119482057D01*
X135524857Y-119482057D02*
X135572476Y-119434438D01*
X135572476Y-119434438D02*
X135667714Y-119386819D01*
X135667714Y-119386819D02*
X135858190Y-119386819D01*
X135858190Y-119386819D02*
X135953428Y-119434438D01*
X135953428Y-119434438D02*
X136001047Y-119482057D01*
X136001047Y-119482057D02*
X136048666Y-119577295D01*
X136048666Y-119577295D02*
X136048666Y-119624914D01*
X136048666Y-119624914D02*
X136001047Y-119720152D01*
X136001047Y-119720152D02*
X135953428Y-119767771D01*
X135953428Y-119767771D02*
X135858190Y-119815390D01*
X135858190Y-119815390D02*
X135667714Y-119815390D01*
X135667714Y-119815390D02*
X135572476Y-119863009D01*
X135572476Y-119863009D02*
X135524857Y-119910628D01*
X135524857Y-119910628D02*
X135477238Y-120005866D01*
X135477238Y-120005866D02*
X135477238Y-120196342D01*
X135477238Y-120196342D02*
X135524857Y-120291580D01*
X135524857Y-120291580D02*
X135572476Y-120339200D01*
X135572476Y-120339200D02*
X135667714Y-120386819D01*
X135667714Y-120386819D02*
X135858190Y-120386819D01*
X135858190Y-120386819D02*
X135953428Y-120339200D01*
X135953428Y-120339200D02*
X136001047Y-120291580D01*
X136001047Y-120291580D02*
X136048666Y-120196342D01*
X136048666Y-120196342D02*
X136048666Y-120005866D01*
X136048666Y-120005866D02*
X136001047Y-119910628D01*
X136001047Y-119910628D02*
X135953428Y-119863009D01*
X135953428Y-119863009D02*
X135858190Y-119815390D01*
X141264819Y-112804533D02*
X141979104Y-112804533D01*
X141979104Y-112804533D02*
X142121961Y-112852152D01*
X142121961Y-112852152D02*
X142217200Y-112947390D01*
X142217200Y-112947390D02*
X142264819Y-113090247D01*
X142264819Y-113090247D02*
X142264819Y-113185485D01*
X141264819Y-112423580D02*
X141264819Y-111756914D01*
X141264819Y-111756914D02*
X142264819Y-112185485D01*
X138858666Y-106940819D02*
X138858666Y-107655104D01*
X138858666Y-107655104D02*
X138811047Y-107797961D01*
X138811047Y-107797961D02*
X138715809Y-107893200D01*
X138715809Y-107893200D02*
X138572952Y-107940819D01*
X138572952Y-107940819D02*
X138477714Y-107940819D01*
X139763428Y-107274152D02*
X139763428Y-107940819D01*
X139525333Y-106893200D02*
X139287238Y-107607485D01*
X139287238Y-107607485D02*
X139906285Y-107607485D01*
X146478666Y-106940819D02*
X146478666Y-107655104D01*
X146478666Y-107655104D02*
X146431047Y-107797961D01*
X146431047Y-107797961D02*
X146335809Y-107893200D01*
X146335809Y-107893200D02*
X146192952Y-107940819D01*
X146192952Y-107940819D02*
X146097714Y-107940819D01*
X147431047Y-106940819D02*
X146954857Y-106940819D01*
X146954857Y-106940819D02*
X146907238Y-107417009D01*
X146907238Y-107417009D02*
X146954857Y-107369390D01*
X146954857Y-107369390D02*
X147050095Y-107321771D01*
X147050095Y-107321771D02*
X147288190Y-107321771D01*
X147288190Y-107321771D02*
X147383428Y-107369390D01*
X147383428Y-107369390D02*
X147431047Y-107417009D01*
X147431047Y-107417009D02*
X147478666Y-107512247D01*
X147478666Y-107512247D02*
X147478666Y-107750342D01*
X147478666Y-107750342D02*
X147431047Y-107845580D01*
X147431047Y-107845580D02*
X147383428Y-107893200D01*
X147383428Y-107893200D02*
X147288190Y-107940819D01*
X147288190Y-107940819D02*
X147050095Y-107940819D01*
X147050095Y-107940819D02*
X146954857Y-107893200D01*
X146954857Y-107893200D02*
X146907238Y-107845580D01*
X142668666Y-106940819D02*
X142668666Y-107655104D01*
X142668666Y-107655104D02*
X142621047Y-107797961D01*
X142621047Y-107797961D02*
X142525809Y-107893200D01*
X142525809Y-107893200D02*
X142382952Y-107940819D01*
X142382952Y-107940819D02*
X142287714Y-107940819D01*
X143573428Y-106940819D02*
X143382952Y-106940819D01*
X143382952Y-106940819D02*
X143287714Y-106988438D01*
X143287714Y-106988438D02*
X143240095Y-107036057D01*
X143240095Y-107036057D02*
X143144857Y-107178914D01*
X143144857Y-107178914D02*
X143097238Y-107369390D01*
X143097238Y-107369390D02*
X143097238Y-107750342D01*
X143097238Y-107750342D02*
X143144857Y-107845580D01*
X143144857Y-107845580D02*
X143192476Y-107893200D01*
X143192476Y-107893200D02*
X143287714Y-107940819D01*
X143287714Y-107940819D02*
X143478190Y-107940819D01*
X143478190Y-107940819D02*
X143573428Y-107893200D01*
X143573428Y-107893200D02*
X143621047Y-107845580D01*
X143621047Y-107845580D02*
X143668666Y-107750342D01*
X143668666Y-107750342D02*
X143668666Y-107512247D01*
X143668666Y-107512247D02*
X143621047Y-107417009D01*
X143621047Y-107417009D02*
X143573428Y-107369390D01*
X143573428Y-107369390D02*
X143478190Y-107321771D01*
X143478190Y-107321771D02*
X143287714Y-107321771D01*
X143287714Y-107321771D02*
X143192476Y-107369390D01*
X143192476Y-107369390D02*
X143144857Y-107417009D01*
X143144857Y-107417009D02*
X143097238Y-107512247D01*
X152574666Y-96736819D02*
X152574666Y-97451104D01*
X152574666Y-97451104D02*
X152527047Y-97593961D01*
X152527047Y-97593961D02*
X152431809Y-97689200D01*
X152431809Y-97689200D02*
X152288952Y-97736819D01*
X152288952Y-97736819D02*
X152193714Y-97736819D01*
X153003238Y-96832057D02*
X153050857Y-96784438D01*
X153050857Y-96784438D02*
X153146095Y-96736819D01*
X153146095Y-96736819D02*
X153384190Y-96736819D01*
X153384190Y-96736819D02*
X153479428Y-96784438D01*
X153479428Y-96784438D02*
X153527047Y-96832057D01*
X153527047Y-96832057D02*
X153574666Y-96927295D01*
X153574666Y-96927295D02*
X153574666Y-97022533D01*
X153574666Y-97022533D02*
X153527047Y-97165390D01*
X153527047Y-97165390D02*
X152955619Y-97736819D01*
X152955619Y-97736819D02*
X153574666Y-97736819D01*
X129666666Y-96684819D02*
X129666666Y-97399104D01*
X129666666Y-97399104D02*
X129619047Y-97541961D01*
X129619047Y-97541961D02*
X129523809Y-97637200D01*
X129523809Y-97637200D02*
X129380952Y-97684819D01*
X129380952Y-97684819D02*
X129285714Y-97684819D01*
X130666666Y-97684819D02*
X130095238Y-97684819D01*
X130380952Y-97684819D02*
X130380952Y-96684819D01*
X130380952Y-96684819D02*
X130285714Y-96827676D01*
X130285714Y-96827676D02*
X130190476Y-96922914D01*
X130190476Y-96922914D02*
X130095238Y-96970533D01*
X135048666Y-106940819D02*
X135048666Y-107655104D01*
X135048666Y-107655104D02*
X135001047Y-107797961D01*
X135001047Y-107797961D02*
X134905809Y-107893200D01*
X134905809Y-107893200D02*
X134762952Y-107940819D01*
X134762952Y-107940819D02*
X134667714Y-107940819D01*
X135429619Y-106940819D02*
X136048666Y-106940819D01*
X136048666Y-106940819D02*
X135715333Y-107321771D01*
X135715333Y-107321771D02*
X135858190Y-107321771D01*
X135858190Y-107321771D02*
X135953428Y-107369390D01*
X135953428Y-107369390D02*
X136001047Y-107417009D01*
X136001047Y-107417009D02*
X136048666Y-107512247D01*
X136048666Y-107512247D02*
X136048666Y-107750342D01*
X136048666Y-107750342D02*
X136001047Y-107845580D01*
X136001047Y-107845580D02*
X135953428Y-107893200D01*
X135953428Y-107893200D02*
X135858190Y-107940819D01*
X135858190Y-107940819D02*
X135572476Y-107940819D01*
X135572476Y-107940819D02*
X135477238Y-107893200D01*
X135477238Y-107893200D02*
X135429619Y-107845580D01*
D11*
%TO.C,J8*%
X134052000Y-116332000D02*
X134052000Y-111192000D01*
X136712000Y-111192000D02*
X134052000Y-111192000D01*
X136712000Y-116332000D02*
X134052000Y-116332000D01*
X136712000Y-116332000D02*
X136712000Y-111192000D01*
X136712000Y-117602000D02*
X136712000Y-118932000D01*
X136712000Y-118932000D02*
X135382000Y-118932000D01*
%TO.C,J7*%
X142810000Y-113801200D02*
X142810000Y-112471200D01*
X144140000Y-113801200D02*
X142810000Y-113801200D01*
X145410000Y-111141200D02*
X148010000Y-111141200D01*
X145410000Y-113801200D02*
X145410000Y-111141200D01*
X145410000Y-113801200D02*
X148010000Y-113801200D01*
X148010000Y-113801200D02*
X148010000Y-111141200D01*
%TO.C,J4*%
X137862000Y-103886000D02*
X137862000Y-98746000D01*
X140522000Y-98746000D02*
X137862000Y-98746000D01*
X140522000Y-103886000D02*
X137862000Y-103886000D01*
X140522000Y-103886000D02*
X140522000Y-98746000D01*
X140522000Y-105156000D02*
X140522000Y-106486000D01*
X140522000Y-106486000D02*
X139192000Y-106486000D01*
%TO.C,J5*%
X145482000Y-103886000D02*
X145482000Y-98746000D01*
X148142000Y-98746000D02*
X145482000Y-98746000D01*
X148142000Y-103886000D02*
X145482000Y-103886000D01*
X148142000Y-103886000D02*
X148142000Y-98746000D01*
X148142000Y-105156000D02*
X148142000Y-106486000D01*
X148142000Y-106486000D02*
X146812000Y-106486000D01*
%TO.C,J6*%
X141672000Y-103886000D02*
X141672000Y-98746000D01*
X144332000Y-98746000D02*
X141672000Y-98746000D01*
X144332000Y-103886000D02*
X141672000Y-103886000D01*
X144332000Y-103886000D02*
X144332000Y-98746000D01*
X144332000Y-105156000D02*
X144332000Y-106486000D01*
X144332000Y-106486000D02*
X143002000Y-106486000D01*
%TO.C,J2*%
X151530000Y-101270000D02*
X151530000Y-119110000D01*
X151530000Y-101270000D02*
X154190000Y-101270000D01*
X151530000Y-119110000D02*
X154190000Y-119110000D01*
X152860000Y-98670000D02*
X154190000Y-98670000D01*
X154190000Y-98670000D02*
X154190000Y-100000000D01*
X154190000Y-101270000D02*
X154190000Y-119110000D01*
%TO.C,J1*%
X128670000Y-101270000D02*
X128670000Y-119110000D01*
X128670000Y-101270000D02*
X131330000Y-101270000D01*
X128670000Y-119110000D02*
X131330000Y-119110000D01*
X130000000Y-98670000D02*
X131330000Y-98670000D01*
X131330000Y-98670000D02*
X131330000Y-100000000D01*
X131330000Y-101270000D02*
X131330000Y-119110000D01*
%TO.C,J3*%
X134052000Y-103886000D02*
X134052000Y-98746000D01*
X136712000Y-98746000D02*
X134052000Y-98746000D01*
X136712000Y-103886000D02*
X134052000Y-103886000D01*
X136712000Y-103886000D02*
X136712000Y-98746000D01*
X136712000Y-105156000D02*
X136712000Y-106486000D01*
X136712000Y-106486000D02*
X135382000Y-106486000D01*
%TD*%
M02*
